<?xml version="1.0" encoding="UTF-8"?>
<svg version="1.1" xmlns="http://www.w3.org/2000/svg" width="612" height="408">
<path d="M0 0 C12.54 0 25.08 0 38 0 C36.20592923 4.48517692 34.12508714 7.91217611 31.3125 11.75 C30.86986816 12.36182129 30.42723633 12.97364258 29.97119141 13.60400391 C26.42146828 18.48631748 22.76798456 23.28378092 19 28 C21.64654766 32.75675178 25.04106984 36.71865753 28.59179688 40.80273438 C32 44.79319311 32 44.79319311 32 47 C32.66 47 33.32 47 34 47 C35.9453125 49.08203125 35.9453125 49.08203125 38.125 51.8125 C38.84945312 52.70582031 39.57390625 53.59914062 40.3203125 54.51953125 C42 57 42 57 42 60 C29.27375719 61.50904065 29.27375719 61.50904065 24.38671875 58.265625 C22.03266344 55.63183734 20.02720135 52.89343455 18 50 C17.02470355 48.76750089 16.03980568 47.5425561 15.046875 46.32421875 C7.23077931 36.69233792 7.23077931 36.69233792 6 33 C4.68 32.67 3.36 32.34 2 32 C2 28.37 2 24.74 2 21 C3.5778125 20.9690625 3.5778125 20.9690625 5.1875 20.9375 C9.8283289 19.79631257 10.72053721 18.38229262 13.15234375 14.49609375 C13.43207031 14.00238281 13.71179688 13.50867188 14 13 C13.08476562 12.95101562 12.16953125 12.90203125 11.2265625 12.8515625 C10.03804688 12.77679688 8.84953125 12.70203125 7.625 12.625 C6.44164062 12.55539063 5.25828125 12.48578125 4.0390625 12.4140625 C1 12 1 12 -1 10 C-1.23046875 8.125 -1.23046875 8.125 -1.1875 6 C-1.18105469 5.29875 -1.17460937 4.5975 -1.16796875 3.875 C-1 2 -1 2 0 0 Z " fill="#E3C474" transform="translate(315,141)"/>
<path d="M0 0 C4.3431895 0.12308634 7.79063498 0.39849891 11.26953125 3.14453125 C12.13578125 4.07265625 13.00203125 5.00078125 13.89453125 5.95703125 C15.20357422 7.23900391 15.20357422 7.23900391 16.5390625 8.546875 C19.81941367 12.50636137 19.46270809 16.39943495 19.20703125 21.33203125 C19.18447266 22.16347656 19.16191406 22.99492187 19.13867188 23.8515625 C19.08016779 25.88750478 18.9904992 27.9225107 18.89453125 29.95703125 C15.22265625 31.12109375 15.22265625 31.12109375 12.26953125 29.64453125 C8.13023162 26.66676978 4.740626 22.80264295 1.26171875 19.1015625 C-1.08587581 16.97478129 -2.02364746 16.23332732 -5.10546875 15.95703125 C-6.51296837 17.55627109 -7.90790526 19.16936243 -9.21826172 20.84912109 C-12.86057576 25.3995695 -16.23538995 29.3186652 -22.10644531 30.62451172 C-29.12623667 31.19809287 -36.11672383 30.74083183 -43.10546875 29.95703125 C-42.79296875 28.01953125 -42.79296875 28.01953125 -42.10546875 25.95703125 C-41.11546875 25.62703125 -40.12546875 25.29703125 -39.10546875 24.95703125 C-37.89664779 22.95686659 -37.89664779 22.95686659 -37.10546875 20.95703125 C-36.44546875 20.95703125 -35.78546875 20.95703125 -35.10546875 20.95703125 C-34.8415332 20.37655029 -34.57759766 19.79606934 -34.30566406 19.19799805 C-30.53130624 12.15063627 -22.52864428 3.33860143 -15.15966797 0.10253906 C-10.07945762 -1.14087849 -5.13212961 -0.0710106 0 0 Z " fill="#E9D484" transform="translate(294.10546875,171.04296875)"/>
<path d="M0 0 C5.39346988 -0.02464849 10.78690725 -0.04283531 16.18041992 -0.05493164 C18.01668875 -0.05997231 19.85295354 -0.06680477 21.68920898 -0.07543945 C24.32276401 -0.08751672 26.95626616 -0.09323081 29.58984375 -0.09765625 C30.41588608 -0.10281754 31.24192841 -0.10797882 32.09300232 -0.11329651 C34.06236368 -0.11349205 36.03161614 -0.06204152 38 0 C39 1 39 1 39.11352539 3.13305664 C39.10828857 4.04949951 39.10305176 4.96594238 39.09765625 5.91015625 C39.09443359 6.89951172 39.09121094 7.88886719 39.08789062 8.90820312 C39.07532227 10.46958008 39.07532227 10.46958008 39.0625 12.0625 C39.05798828 13.10728516 39.05347656 14.15207031 39.04882812 15.22851562 C39.03699913 17.8190666 39.02051689 20.40950559 39 23 C36.69 23.33 34.38 23.66 32 24 C32.19471111 25.94999129 32.19471111 25.94999129 33 28 C34.3153341 28.70151152 35.65117592 29.36525925 37 30 C38.8125 31.9375 38.8125 31.9375 40 34 C39.67 34.99 39.34 35.98 39 37 C30.03715898 37.78316087 30.03715898 37.78316087 25.9375 34.6875 C24 32 24 32 23 29 C22.34 29 21.68 29 21 29 C20.17350952 27.78219849 20.17350952 27.78219849 19.33032227 26.53979492 C17.18124407 23.68814559 17.18124407 23.68814559 13.65600586 23.37231445 C12.35542236 23.3693335 11.05483887 23.36635254 9.71484375 23.36328125 C9.01734512 23.35290329 8.3198465 23.34252533 7.60121155 23.33183289 C5.37947007 23.30219475 3.1594031 23.3055197 0.9375 23.3125 C-1.28750339 23.30360287 -3.51206049 23.28764258 -5.73692322 23.2610321 C-7.75297794 23.23930175 -9.76922866 23.23887694 -11.78540039 23.23950195 C-15 23 -15 23 -18 21 C-18.3125 18.5 -18.3125 18.5 -18 16 C-16 14 -16 14 -14.05111694 13.75949097 C-13.256138 13.76393219 -12.46115906 13.76837341 -11.64208984 13.77294922 C-10.29091568 13.77317581 -10.29091568 13.77317581 -8.91244507 13.77340698 C-7.93844757 13.78372955 -6.96445007 13.79405212 -5.9609375 13.8046875 C-4.96494537 13.8075174 -3.96895325 13.81034729 -2.94277954 13.81326294 C0.24660118 13.8244816 3.43570378 13.84958919 6.625 13.875 C8.78385012 13.88502762 10.94270463 13.89415385 13.1015625 13.90234375 C18.40113699 13.92442639 23.70054863 13.95792042 29 14 C29 12.35 29 10.7 29 9 C27.94872925 9.05498657 27.94872925 9.05498657 26.8762207 9.11108398 C23.68876405 9.25693947 20.50200854 9.3477321 17.3125 9.4375 C16.20970703 9.49615234 15.10691406 9.55480469 13.97070312 9.61523438 C5.97345414 9.78436049 5.97345414 9.78436049 3.11474609 7.48095703 C1.36545202 5.10105324 0 3.02265009 0 0 Z " fill="#E1E1E1" transform="translate(332,211)"/>
<path d="M0 0 C0.95519531 -0.03738281 1.91039062 -0.07476562 2.89453125 -0.11328125 C7.59876104 -0.17216591 9.97268392 -0.19333915 13.859375 2.6484375 C15.75 5.375 15.75 5.375 16.75 9.375 C8.335 9.87 8.335 9.87 -0.25 10.375 C-0.25 15.985 -0.25 21.595 -0.25 27.375 C3.34455078 27.37886719 3.34455078 27.37886719 7.01171875 27.3828125 C9.34187849 27.40565149 11.67168837 27.43866547 14.00170898 27.47265625 C15.61653345 27.49078398 17.23151265 27.49839057 18.84643555 27.49511719 C21.17357319 27.49225037 23.49752384 27.52765478 25.82421875 27.5703125 C26.90107185 27.5566716 26.90107185 27.5566716 27.99967957 27.54275513 C30.84918008 27.62471235 33.10604307 27.87038692 35.38809204 29.65863037 C36.80786133 31.23779297 36.80786133 31.23779297 38.75 34.375 C38.42 35.365 38.09 36.355 37.75 37.375 C30.93238106 37.4002689 24.11477411 37.41783244 17.29711914 37.42993164 C14.97582549 37.43497333 12.65453503 37.44180651 10.33325195 37.45043945 C7.00471205 37.46251225 3.67621398 37.46822979 0.34765625 37.47265625 C-1.21951393 37.48039818 -1.21951393 37.48039818 -2.81834412 37.48829651 C-3.77926468 37.48837204 -4.74018524 37.48844757 -5.73022461 37.48852539 C-6.58071884 37.490746 -7.43121307 37.49296661 -8.30747986 37.49525452 C-10.25 37.375 -10.25 37.375 -11.25 36.375 C-11.35091475 33.79310554 -11.38971499 31.238535 -11.3828125 28.65625 C-11.38376923 27.88317505 -11.38472595 27.1101001 -11.38571167 26.31359863 C-11.38639341 24.67602456 -11.38453957 23.03844781 -11.38037109 21.40087891 C-11.37502271 18.88568079 -11.38031626 16.37066127 -11.38671875 13.85546875 C-11.38605797 12.26822877 -11.3847768 10.6809889 -11.3828125 9.09375 C-11.38483673 8.33646606 -11.38686096 7.57918213 -11.38894653 6.7989502 C-11.35065627 -1.67286292 -7.42018517 0.1083958 0 0 Z " fill="#E6E6E6" transform="translate(314.25,210.625)"/>
<path d="M0 0 C0.0246501 5.10863896 0.04283607 10.21724359 0.05493164 15.32592773 C0.05997204 17.06519168 0.0668043 18.80445136 0.07543945 20.54370117 C0.08751792 23.03825937 0.09323108 25.53276173 0.09765625 28.02734375 C0.10281754 28.80963852 0.10797882 29.59193329 0.11329651 30.39793396 C0.11349226 32.26567114 0.06199694 34.13329204 0 36 C-1.62393905 37.62393905 -3.38447249 37.32581207 -5.625 37.4375 C-10.74725201 37.41542133 -13.1772386 35.98300281 -16.8203125 32.5078125 C-18 31 -18 31 -18 29 C-18.99 29 -19.98 29 -21 29 C-21.226875 29.5775 -21.45375 30.155 -21.6875 30.75 C-23.52807986 33.90527976 -24.76116429 35.18625201 -28 37 C-32.02226584 37.33562583 -35.97374223 37.23117269 -40 37 C-39.63281512 32.45338726 -36.32623413 30.14263088 -33.125 27.3125 C-32.58230469 26.81427734 -32.03960937 26.31605469 -31.48046875 25.80273438 C-29.00997709 23.57687575 -27.18714014 22.06238005 -24 21 C-23.54625 20.236875 -23.0925 19.47375 -22.625 18.6875 C-20.7927442 15.65723079 -18.89713409 14.00570822 -16 12 C-15.34 12 -14.68 12 -14 12 C-13.34 10.68 -12.68 9.36 -12 8 C-11.34 8 -10.68 8 -10 8 C-9.67 7.01 -9.34 6.02 -9 5 C-3.65116279 0 -3.65116279 0 0 0 Z M-10 17 C-11.35827971 18.64639965 -12.69254251 20.31295807 -14 22 C-11.525 23.485 -11.525 23.485 -9 25 C-9 22.36 -9 19.72 -9 17 C-9.33 17 -9.66 17 -10 17 Z " fill="#C7C6C7" transform="translate(241,211)"/>
<path d="M0 0 C3.47971308 1.51291873 5.90991336 3.55763329 8.6875 6.125 C12.85284232 9.95612466 17.08447415 13.68999083 21.3828125 17.37109375 C23 19 23 19 23 21 C24.65365406 22.02137457 26.32376502 23.01612294 28 24 C32.30636685 27.31949112 35.63037482 30.73841521 39 35 C38.505 35.99 38.505 35.99 38 37 C28.32231944 37.86066329 28.32231944 37.86066329 24.375 34.625 C22 32 22 32 22 30 C18.12087069 30.23509875 16.44903178 31.4072251 13.8125 34.0625 C10.76588231 36.8737278 8.76276139 37.42569469 4.625 37.4375 C0.21780604 37.21780604 0.21780604 37.21780604 -1 36 C-1.10091475 33.41810554 -1.13971499 30.863535 -1.1328125 28.28125 C-1.13376923 27.50817505 -1.13472595 26.7351001 -1.13571167 25.93859863 C-1.13639341 24.30102456 -1.13453957 22.66344781 -1.13037109 21.02587891 C-1.12502271 18.51068079 -1.13031626 15.99566127 -1.13671875 13.48046875 C-1.13605797 11.89322877 -1.1347768 10.3059889 -1.1328125 8.71875 C-1.13483673 7.96146606 -1.13686096 7.20418213 -1.13894653 6.4239502 C-1.11495132 1.11495132 -1.11495132 1.11495132 0 0 Z M8 16 C8 19.3 8 22.6 8 26 C10.31 24.68 12.62 23.36 15 22 C11.82460444 18.57421051 11.82460444 18.57421051 8 16 Z " fill="#D3D3D3" transform="translate(374,211)"/>
<path d="M0 0 C6.91176471 1.38235294 6.91176471 1.38235294 10 5 C10.42360629 8.37296509 10.29032855 11.6192853 10 15 C12.64 15 15.28 15 18 15 C17.94199219 14.32453125 17.88398438 13.6490625 17.82421875 12.953125 C17.45344821 5.62246176 17.45344821 5.62246176 20.25 2.4375 C22.58290079 1.21802913 24.39097627 0.27953826 27 0 C28 1 28 1 28.11352539 4.32641602 C28.11336629 5.80225556 28.10767314 7.27810069 28.09765625 8.75390625 C28.0962413 9.52935287 28.09482635 10.3047995 28.09336853 11.10374451 C28.08775345 13.59003494 28.07519846 16.0762366 28.0625 18.5625 C28.05748694 20.24413933 28.0529237 21.92578006 28.04882812 23.60742188 C28.03777913 27.73831566 28.02050445 31.86914276 28 36 C24.08393425 35.46599103 21.60661066 34.80330533 18 33 C18 29.04 18 25.08 18 21 C15.36 21 12.72 21 10 21 C10.06960938 21.74765625 10.13921875 22.4953125 10.2109375 23.265625 C10.37615691 26.2710448 10.42060471 29.01714006 10 32 C6.48467399 35.43543224 4.91957603 36 0 36 C0 24.12 0 12.24 0 0 Z " fill="#CFCFCF" transform="translate(273,211)"/>
<path d="M0 0 C1.0305249 0.00410889 2.0610498 0.00821777 3.12280273 0.01245117 C4.23977539 0.01438477 5.35674805 0.01631836 6.50756836 0.01831055 C8.26423828 0.03667969 8.26423828 0.03667969 10.05639648 0.05541992 C11.23137695 0.05606445 12.40635742 0.05670898 13.61694336 0.05737305 C22.35377508 0.10279852 22.35377508 0.10279852 23.49389648 1.24291992 C23.6350481 3.91350843 23.53636756 6.5672423 23.49389648 9.24291992 C20.52389648 9.24291992 17.55389648 9.24291992 14.49389648 9.24291992 C14.50960693 10.02006348 14.52531738 10.79720703 14.54150391 11.59790039 C14.60369999 15.10450012 14.64283855 18.61098406 14.68139648 22.11791992 C14.7065332 23.34124023 14.73166992 24.56456055 14.75756836 25.82495117 C14.76723633 26.99155273 14.7769043 28.1581543 14.78686523 29.36010742 C14.80257568 30.4388916 14.81828613 31.51767578 14.83447266 32.62915039 C14.72208252 33.49169434 14.60969238 34.35423828 14.49389648 35.24291992 C11.49389648 37.24291992 11.49389648 37.24291992 8.86889648 36.93041992 C6.49389648 36.24291992 6.49389648 36.24291992 5.49389648 35.24291992 C5.40641441 33.31624485 5.38692314 31.38640131 5.39624023 29.45776367 C5.39946289 28.28793945 5.40268555 27.11811523 5.40600586 25.9128418 C5.41438477 24.68114258 5.42276367 23.44944336 5.43139648 22.18041992 C5.4359082 20.94485352 5.44041992 19.70928711 5.44506836 18.4362793 C5.45690041 15.37177875 5.47338475 12.30737271 5.49389648 9.24291992 C4.85581055 9.25452148 4.21772461 9.26612305 3.56030273 9.27807617 C2.32086914 9.29161133 2.32086914 9.29161133 1.05639648 9.30541992 C-0.17916992 9.32282227 -0.17916992 9.32282227 -1.43969727 9.34057617 C-3.50610352 9.24291992 -3.50610352 9.24291992 -4.50610352 8.24291992 C-4.69360352 5.30541992 -4.69360352 5.30541992 -4.50610352 2.24291992 C-2.50610352 0.24291992 -2.50610352 0.24291992 0 0 Z " fill="#D4D4D4" transform="translate(247.506103515625,210.757080078125)"/>
<path d="M0 0 C6.65349368 0.49992097 10.02738296 1.24306656 14.609375 6.15234375 C15.91841797 7.43431641 15.91841797 7.43431641 17.25390625 8.7421875 C20.53425742 12.70167387 20.17755184 16.59474745 19.921875 21.52734375 C19.89931641 22.35878906 19.87675781 23.19023437 19.85351562 24.046875 C19.79501154 26.08281728 19.70534295 28.1178232 19.609375 30.15234375 C15.9375 31.31640625 15.9375 31.31640625 12.984375 29.83984375 C8.84507537 26.86208228 5.45546975 22.99795545 1.9765625 19.296875 C-0.81610138 16.7049644 -0.81610138 16.7049644 -4.390625 16.15234375 C-6.39058825 17.33100023 -6.39058825 17.33100023 -8.140625 19.08984375 C-9.06101562 19.93869141 -9.06101562 19.93869141 -10 20.8046875 C-10.45890625 21.24941406 -10.9178125 21.69414062 -11.390625 22.15234375 C-11.390625 21.16234375 -11.390625 20.17234375 -11.390625 19.15234375 C-10.730625 19.15234375 -10.070625 19.15234375 -9.390625 19.15234375 C-9.390625 18.49234375 -9.390625 17.83234375 -9.390625 17.15234375 C-8.730625 17.15234375 -8.070625 17.15234375 -7.390625 17.15234375 C-7.390625 16.16234375 -7.390625 15.17234375 -7.390625 14.15234375 C-5.9675 14.05953125 -5.9675 14.05953125 -4.515625 13.96484375 C-3.484375 13.69671875 -2.453125 13.42859375 -1.390625 13.15234375 C0.04025711 10.8670948 0.04025711 10.8670948 0.609375 8.15234375 C0.815625 7.38921875 1.021875 6.62609375 1.234375 5.83984375 C1.358125 5.28296875 1.481875 4.72609375 1.609375 4.15234375 C2.269375 4.15234375 2.929375 4.15234375 3.609375 4.15234375 C3.609375 3.49234375 3.609375 2.83234375 3.609375 2.15234375 C0.969375 2.15234375 -1.670625 2.15234375 -4.390625 2.15234375 C-2.390625 0.15234375 -2.390625 0.15234375 0 0 Z " fill="#DFB668" transform="translate(293.390625,170.84765625)"/>
<path d="M0 0 C0.66 0 1.32 0 2 0 C4.4129698 4.8259396 4.17433286 11.75412289 3 17 C0.53003543 21.2600775 -2.45165935 24.60593503 -6 28 C-6.33 28.33 -6.66 28.66 -7 29 C-9.82256491 29.10007008 -12.6152319 29.13875598 -15.4375 29.125 C-16.22705078 29.12886719 -17.01660156 29.13273437 -17.83007812 29.13671875 C-23.74673867 29.12663067 -23.74673867 29.12663067 -26 28 C-24.33536962 23.71357676 -21.20924163 20.91382783 -18 17.75 C-17.4534375 17.19570312 -16.906875 16.64140625 -16.34375 16.0703125 C-12.2533867 12 -12.2533867 12 -10 12 C-9.34 10.68 -8.68 9.36 -8 8 C-7.34 8 -6.68 8 -6 8 C-5.34 6.68 -4.68 5.36 -4 4 C-3.34 4 -2.68 4 -2 4 C-1.34 2.68 -0.68 1.36 0 0 Z " fill="#D4BC6B" transform="translate(308,141)"/>
<path d="M0 0 C6.47446024 1.29489205 6.47446024 1.29489205 9 4 C9.390625 6.91796875 9.390625 6.91796875 9.25 10.1875 C9.21390625 11.27417969 9.1778125 12.36085937 9.140625 13.48046875 C9.07101562 14.72763672 9.07101562 14.72763672 9 16 C14.445 15.505 14.445 15.505 20 15 C20 15.66 20 16.32 20 17 C19.34 17 18.68 17 18 17 C17.67 17.99 17.34 18.98 17 20 C14.69 20 12.38 20 10 20 C10.06960938 20.81984375 10.13921875 21.6396875 10.2109375 22.484375 C10.37465155 25.7430641 10.42191646 28.76243698 10 32 C7.25 34.75 7.25 34.75 4 36 C2.68 36 1.36 36 0 36 C0 24.12 0 12.24 0 0 Z " fill="#EDEDED" transform="translate(273,211)"/>
<path d="M0 0 C0 7.59 0 15.18 0 23 C-2.31 23.33 -4.62 23.66 -7 24 C-7.33 21.03 -7.66 18.06 -8 15 C-8.309375 15.639375 -8.61875 16.27875 -8.9375 16.9375 C-12.09768575 20.09768575 -15.68333908 19.81900793 -20 20 C-20.33 18.68 -20.66 17.36 -21 16 C-15.25 11 -15.25 11 -13 11 C-12.34 9.68 -11.68 8.36 -11 7 C-10.34 7 -9.68 7 -9 7 C-8.67 6.01 -8.34 5.02 -8 4 C-3.65714286 0 -3.65714286 0 0 0 Z " fill="#E4E4E4" transform="translate(240,212)"/>
<path d="M0 0 C12.54 0 25.08 0 38 0 C37.34 1.65 36.68 3.3 36 5 C33.875 5.8125 33.875 5.8125 32 6 C31.505 4.02 31.505 4.02 31 2 C21.43 2 11.86 2 2 2 C2.33 3.98 2.66 5.96 3 8 C10.425 8.99 10.425 8.99 18 10 C16 14 16 14 14 15 C14 14.34 14 13.68 14 13 C13.08476562 12.95101562 12.16953125 12.90203125 11.2265625 12.8515625 C10.03804688 12.77679688 8.84953125 12.70203125 7.625 12.625 C6.44164062 12.55539063 5.25828125 12.48578125 4.0390625 12.4140625 C1 12 1 12 -1 10 C-1.23046875 8.125 -1.23046875 8.125 -1.1875 6 C-1.18105469 5.29875 -1.17460937 4.5975 -1.16796875 3.875 C-1 2 -1 2 0 0 Z " fill="#98885A" transform="translate(315,141)"/>
<path d="M0 0 C-0.66 1.65 -1.32 3.3 -2 5 C-1.01 5.33 -0.02 5.66 1 6 C0.01 6 -0.98 6 -2 6 C-2.3403125 6.86625 -2.3403125 6.86625 -2.6875 7.75 C-4.52807986 10.90527976 -5.76116429 12.18625201 -9 14 C-13.02226584 14.33562583 -16.97374223 14.23117269 -21 14 C-20.47390666 10.02309105 -18.66597631 8.439122 -15.6875 5.875 C-14.90761719 5.19179687 -14.12773437 4.50859375 -13.32421875 3.8046875 C-8.73768579 0.24337956 -5.84450112 -0.2247885 0 0 Z " fill="#E7E7E7" transform="translate(222,234)"/>
<path d="M0 0 C2.31459868 1.81817001 2.95377187 2.75615543 3.51171875 5.69921875 C3.75585938 9.84960938 3.75585938 9.84960938 4 14 C4.33 9.71 4.66 5.42 5 1 C5.99 1.33 6.98 1.66 8 2 C8 7.94 8 13.88 8 20 C4 21 4 21 1.0625 19.4375 C-2.20336395 16.83813889 -4.45843638 14.28908233 -7 11 C-5.35 10.67 -3.7 10.34 -2 10 C-2.33 8.68 -2.66 7.36 -3 6 C-2.34 6 -1.68 6 -1 6 C-0.67 4.02 -0.34 2.04 0 0 Z " fill="#B4975E" transform="translate(305,181)"/>
<path d="M0 0 C0.66 0.66 1.32 1.32 2 2 C1.67 2.99 1.34 3.98 1 5 C0.01 4.67 -0.98 4.34 -2 4 C-1.67 4.99 -1.34 5.98 -1 7 C-2.32 7.33 -3.64 7.66 -5 8 C-4.01 9.485 -4.01 9.485 -3 11 C-3.66 12.32 -4.32 13.64 -5 15 C-5.66 15 -6.32 15 -7 15 C-6.11785113 17.88214887 -6.11785113 17.88214887 -5 20 C-9 20 -13 20 -17 20 C-9.74 20.33 -2.48 20.66 5 21 C5 21.33 5 21.66 5 22 C-2.92 22 -10.84 22 -19 22 C-18.67 20.68 -18.34 19.36 -18 18 C-17.01 17.67 -16.02 17.34 -15 17 C-13.79117904 14.99983534 -13.79117904 14.99983534 -13 13 C-12.34 13 -11.68 13 -11 13 C-10.76539063 12.43796875 -10.53078125 11.8759375 -10.2890625 11.296875 C-8.69337 8.45364109 -6.71075457 6.51901873 -4.375 4.25 C-3.55773437 3.45078125 -2.74046875 2.6515625 -1.8984375 1.828125 C-0.95871094 0.92320312 -0.95871094 0.92320312 0 0 Z " fill="#CDAF6A" transform="translate(270,179)"/>
<path d="M0 0 C4.62 0 9.24 0 14 0 C12.74800473 3.75598581 11.46276595 7.34308512 10 11 C10 11.33 10 11.66 10 12 C7.69 12 5.38 12 3 12 C3 12.99 3 13.98 3 15 C2.01 15.33 1.02 15.66 0 16 C-0.99 15.01 -1.98 14.02 -3 13 C-0.525 13.495 -0.525 13.495 2 14 C2 9.71 2 5.42 2 1 C1.34 0.67 0.68 0.34 0 0 Z " fill="#F4E390" transform="translate(283,173)"/>
<path d="M0 0 C0 3.43374546 -0.51582672 4.06340021 -2.51953125 6.72265625 C-3.31133789 7.77743164 -3.31133789 7.77743164 -4.11914062 8.85351562 C-4.67794922 9.58248047 -5.23675781 10.31144531 -5.8125 11.0625 C-6.63331055 12.16174805 -6.63331055 12.16174805 -7.47070312 13.28320312 C-9.87181237 16.45266733 -11.65386273 18.76924182 -15 21 C-15 19.68 -15 18.36 -15 17 C-15.66 17.33 -16.32 17.66 -17 18 C-16.67 19.65 -16.34 21.3 -16 23 C-16.763125 22.484375 -17.52625 21.96875 -18.3125 21.4375 C-19.199375 20.963125 -20.08625 20.48875 -21 20 C-21.99 20.33 -22.98 20.66 -24 21 C-24.33 20.34 -24.66 19.68 -25 19 C-24.67 18.01 -24.34 17.02 -24 16 C-23.01 16 -22.02 16 -21 16 C-20.67 15.01 -20.34 14.02 -20 13 C-20.99 13.495 -20.99 13.495 -22 14 C-24.6723621 14.13415472 -27.32250488 14.04318541 -30 14 C-30 13.67 -30 13.34 -30 13 C-28.3603125 12.814375 -28.3603125 12.814375 -26.6875 12.625 C-22.92618198 12.24535199 -22.92618198 12.24535199 -20 10 C-19.01 11.485 -19.01 11.485 -18 13 C-17.34 12.67 -16.68 12.34 -16 12 C-13.875 12.9375 -13.875 12.9375 -12 14 C-8.68347555 10.86274714 -6.30777441 7.91318269 -4 4 C-2.70420353 2.63015802 -1.38007251 1.2848951 0 0 Z " fill="#D6BA6C" transform="translate(347,149)"/>
<path d="M0 0 C1.46022163 0.95545366 2.91811468 1.91446678 4.375 2.875 C5.18710937 3.40867188 5.99921875 3.94234375 6.8359375 4.4921875 C9 6 9 6 11 8 C11 8.99 11 9.98 11 11 C6.05 11 1.1 11 -4 11 C-4.66 8.69 -5.32 6.38 -6 4 C-4.02 2.68 -2.04 1.36 0 0 Z " fill="#DAB979" transform="translate(346,190)"/>
<path d="M0 0 C2.5 2.25 2.5 2.25 5 5 C5 6.32 5 7.64 5 9 C-8.2 9 -21.4 9 -35 9 C-35 8.67 -35 8.34 -35 8 C-24.11 7.67 -13.22 7.34 -2 7 C-2 5.68 -2 4.36 -2 3 C-1.34 2.67 -0.68 2.34 0 2 C0 1.34 0 0.68 0 0 Z " fill="#9E9E9E" transform="translate(347,239)"/>
<path d="M0 0 C0.66 0 1.32 0 2 0 C4.44856927 4.89713853 3.6147197 11.657527 3 17 C1.33667517 20.24696942 -0.15144549 21.61651562 -3 24 C-3.33 24 -3.66 24 -4 24 C-4 22.35 -4 20.7 -4 19 C-2.68 19 -1.36 19 0 19 C0 15.04 0 11.08 0 7 C-1.65 6.67 -3.3 6.34 -5 6 C-4.67 5.34 -4.34 4.68 -4 4 C-3.34 4 -2.68 4 -2 4 C-1.34 2.68 -0.68 1.36 0 0 Z " fill="#CBBD8C" transform="translate(308,141)"/>
<path d="M0 0 C1.48828125 1.14453125 1.48828125 1.14453125 3 3 C3.29296875 5.69921875 3.29296875 5.69921875 3.1875 8.6875 C3.16042969 9.68136719 3.13335937 10.67523438 3.10546875 11.69921875 C3.07066406 12.45847656 3.03585937 13.21773437 3 14 C2.01 14 1.02 14 0 14 C0.33 15.65 0.66 17.3 1 19 C-0.14926266 18.04578192 -1.29430541 17.08647955 -2.4375 16.125 C-3.07558594 15.59132812 -3.71367187 15.05765625 -4.37109375 14.5078125 C-6 13 -6 13 -7 11 C-5.35 10.67 -3.7 10.34 -2 10 C-2.33 8.68 -2.66 7.36 -3 6 C-2.34 6 -1.68 6 -1 6 C-0.67 4.02 -0.34 2.04 0 0 Z " fill="#C79E53" transform="translate(305,181)"/>
<path d="M0 0 C0.598125 0.185625 1.19625 0.37125 1.8125 0.5625 C4.16408762 1.22093687 4.16408762 1.22093687 7 0 C7.66 0.33 8.32 0.66 9 1 C9 1.99 9 2.98 9 4 C7.68 4 6.36 4 5 4 C5 5.65 5 7.3 5 9 C4.34 9 3.68 9 3 9 C2.67 9.99 2.34 10.98 2 12 C0.4375 10.8125 0.4375 10.8125 -1 9 C-0.6875 6.5625 -0.6875 6.5625 0 4 C0 2.68 0 1.36 0 0 Z " fill="#EED676" transform="translate(299,156)"/>
<path d="M0 0 C0.33 0 0.66 0 1 0 C1 2.31 1 4.62 1 7 C1.99 6.67 2.98 6.34 4 6 C6.59069971 6.24632882 9.11836247 6.55128978 11.6875 6.9375 C12.7403418 7.08735352 12.7403418 7.08735352 13.81445312 7.24023438 C15.54386527 7.48729325 17.2720627 7.74282852 19 8 C17.25 11.875 17.25 11.875 15 13 C15 12.34 15 11.68 15 11 C14.08476562 10.95101562 13.16953125 10.90203125 12.2265625 10.8515625 C11.03804688 10.77679688 9.84953125 10.70203125 8.625 10.625 C7.44164062 10.55539063 6.25828125 10.48578125 5.0390625 10.4140625 C2 10 2 10 0 8 C-0.26991906 5.31160615 -0.08737357 2.70858064 0 0 Z " fill="#988649" transform="translate(314,143)"/>
<path d="M0 0 C0.33 0.66 0.66 1.32 1 2 C1.66 2 2.32 2 3 2 C3 4.31 3 6.62 3 9 C2.05125 8.814375 1.1025 8.62875 0.125 8.4375 C-2.89868793 7.71313368 -2.89868793 7.71313368 -5 9 C-5 8.01 -5 7.02 -5 6 C-5.66 5.67 -6.32 5.34 -7 5 C-5.68 4.34 -4.36 3.68 -3 3 C-3 2.34 -3 1.68 -3 1 C-2.01 0.67 -1.02 0.34 0 0 Z " fill="#DFCB75" transform="translate(305,146)"/>
<path d="M0 0 C1.32 0.33 2.64 0.66 4 1 C3.8125 4.3125 3.8125 4.3125 3 8 C0.4375 9.9375 0.4375 9.9375 -2 11 C-4 9 -4 9 -6 6 C-5.01 5.67 -4.02 5.34 -3 5 C-1.30117552 2.50240018 -1.30117552 2.50240018 0 0 Z " fill="#F9EE9D" transform="translate(278,173)"/>
<path d="M0 0 C12.54 0 25.08 0 38 0 C38 0.33 38 0.66 38 1 C26.78 1 15.56 1 4 1 C4.33 2.32 4.66 3.64 5 5 C4.01 5 3.02 5 2 5 C1.34 3.35 0.68 1.7 0 0 Z " fill="#B9B9B9" transform="translate(332,211)"/>
<path d="M0 0 C0.99 0.33 1.98 0.66 3 1 C2.34 1 1.68 1 1 1 C1 11.56 1 22.12 1 33 C3.31 33 5.62 33 8 33 C4.93882432 35.62386487 4.26826873 36 0 36 C0 24.12 0 12.24 0 0 Z " fill="#999999" transform="translate(273,211)"/>
<path d="M0 0 C2.01822917 0.06510417 4.03645833 0.13020833 6.0546875 0.1953125 C5.7246875 1.1853125 5.3946875 2.1753125 5.0546875 3.1953125 C4.0646875 2.8653125 3.0746875 2.5353125 2.0546875 2.1953125 C1.3946875 2.8553125 0.7346875 3.5153125 0.0546875 4.1953125 C0.0546875 5.5153125 0.0546875 6.8353125 0.0546875 8.1953125 C-1.2653125 8.1953125 -2.5853125 8.1953125 -3.9453125 8.1953125 C-4.6053125 7.5353125 -5.2653125 6.8753125 -5.9453125 6.1953125 C-3.20430126 0.32171699 -3.20430126 0.32171699 0 0 Z " fill="#F5F5F5" transform="translate(390.9453125,232.8046875)"/>
<path d="M0 0 C1.34173403 0.92543709 2.67320159 1.86577405 4 2.8125 C5.11375 3.59560547 5.11375 3.59560547 6.25 4.39453125 C6.8275 4.92433594 7.405 5.45414063 8 6 C8 6.99 8 7.98 8 9 C1.9453125 9.1953125 1.9453125 9.1953125 0 9 C-0.66 8.34 -1.32 7.68 -2 7 C-1.01 6.67 -0.02 6.34 1 6 C1.33 5.34 1.66 4.68 2 4 C1.34 3.67 0.68 3.34 0 3 C0 2.01 0 1.02 0 0 Z " fill="#A1A1A1" transform="translate(389,224)"/>
<path d="M0 0 C1.09658936 3.28976808 0.79953138 4.71303767 0 8 C-6.625 10 -6.625 10 -10 10 C-6.7 6.7 -3.4 3.4 0 0 Z " fill="#BDB368" transform="translate(296,153)"/>
<path d="M0 0 C1 3 1 3 0.0625 5.1875 C-0.4634375 6.0846875 -0.4634375 6.0846875 -1 7 C1.31 7 3.62 7 6 7 C6 7.33 6 7.66 6 8 C2.04 8 -1.92 8 -6 8 C-4.85240511 3.40962044 -3.70960782 2.66330818 0 0 Z " fill="#8A8A8A" transform="translate(207,240)"/>
<path d="M0 0 C0.99 0 1.98 0 3 0 C3 2.97 3 5.94 3 9 C1.35 9 -0.3 9 -2 9 C-2 8.01 -2 7.02 -2 6 C-2.66 5.34 -3.32 4.68 -4 4 C-2.68 3.34 -1.36 2.68 0 2 C0 1.34 0 0.68 0 0 Z " fill="#E8C571" transform="translate(268,183)"/>
<path d="M0 0 C1.32 0.33 2.64 0.66 4 1 C4 1.66 4 2.32 4 3 C4.66 3 5.32 3 6 3 C5.34 4.32 4.68 5.64 4 7 C3.67 6.34 3.34 5.68 3 5 C1.02 5.33 -0.96 5.66 -3 6 C-3.33 4.68 -3.66 3.36 -4 2 C-3.01 2 -2.02 2 -1 2 C-0.67 1.34 -0.34 0.68 0 0 Z " fill="#F1CF7A" transform="translate(331,157)"/>
<path d="M0 0 C4.22797927 2.37823834 4.22797927 2.37823834 6 5 C6.54022149 9.37473479 6.34680289 13.61358567 6 18 C5.34 17.67 4.68 17.34 4 17 C3.64233098 14.22014208 3.55590567 11.46375792 3.44140625 8.6640625 C2.93882687 5.63079579 2.19697711 5.00364312 0 3 C0 2.01 0 1.02 0 0 Z " fill="#DDB25C" transform="translate(304,178)"/>
<path d="M0 0 C1.98 0 3.96 0 6 0 C5.34733531 2.00461299 4.67795528 4.00379834 4 6 C3.71125 6.928125 3.4225 7.85625 3.125 8.8125 C2 11 2 11 -0.125 11.8125 C-0.74375 11.874375 -1.3625 11.93625 -2 12 C-1.484375 11.13375 -0.96875 10.2675 -0.4375 9.375 C1.16782969 5.60596507 1.01911045 3.89114901 0 0 Z " fill="#EDCF79" transform="translate(291,173)"/>
<path d="M0 0 C0.66 0.33 1.32 0.66 2 1 C2 3.97 2 6.94 2 10 C3.32 9.01 4.64 8.02 6 7 C6.66 7.33 7.32 7.66 8 8 C6.4198632 10.15473199 4.89353366 12.10646634 3 14 C1.68 13.34 0.36 12.68 -1 12 C-0.67 8.04 -0.34 4.08 0 0 Z " fill="#BDBDBD" transform="translate(381,226)"/>
<path d="M0 0 C0.66 0.66 1.32 1.32 2 2 C1.34 2 0.68 2 0 2 C0 1.34 0 0.68 0 0 Z M-4 1 C-2.125 1.25 -2.125 1.25 0 2 C1.25 4.0625 1.25 4.0625 2 6 C0.02 6.99 0.02 6.99 -2 8 C-3.5625 6.75 -3.5625 6.75 -5 5 C-4.6875 2.8125 -4.6875 2.8125 -4 1 Z " fill="#E1B767" transform="translate(302,185)"/>
<path d="M0 0 C-0.33 1.32 -0.66 2.64 -1 4 C-3.31 3.67 -5.62 3.34 -8 3 C-8 5.31 -8 7.62 -8 10 C-8.33 10 -8.66 10 -9 10 C-9.33 7.03 -9.66 4.06 -10 1 C-2.25 0 -2.25 0 0 0 Z " fill="#EAD38E" transform="translate(327,162)"/>
<path d="M0 0 C0 4.0744433 -2.09169249 6.11745033 -4.5 9.1875 C-4.92925781 9.74630859 -5.35851562 10.30511719 -5.80078125 10.88085938 C-6.86078055 12.25885847 -7.92956188 13.63009407 -9 15 C-9.33 14.01 -9.66 13.02 -10 12 C-9.566875 11.608125 -9.13375 11.21625 -8.6875 10.8125 C-6.88828613 9.01033527 -6.88828613 9.01033527 -5.5625 6.5625 C-3.97178784 3.95373206 -2.22795561 2.0743035 0 0 Z " fill="#7F6A3A" transform="translate(347,149)"/>
<path d="M0 0 C0.66 0.33 1.32 0.66 2 1 C2.625 4.0625 2.625 4.0625 3 7 C0.625 7.1875 0.625 7.1875 -2 7 C-2.66 6.01 -3.32 5.02 -4 4 C-2.68 2.68 -1.36 1.36 0 0 Z " fill="#F3F3F3" transform="translate(268,212)"/>
<path d="M0 0 C0.99 0 1.98 0 3 0 C3.33 1.32 3.66 2.64 4 4 C2.35 5.32 0.7 6.64 -1 8 C-1.625 5.125 -1.625 5.125 -2 2 C-1.34 1.34 -0.68 0.68 0 0 Z " fill="#B59C57" transform="translate(333,162)"/>
<path d="M0 0 C0.99 0.33 1.98 0.66 3 1 C2.01 2.485 2.01 2.485 1 4 C2.32 4 3.64 4 5 4 C5 4.99 5 5.98 5 7 C2.69 7 0.38 7 -2 7 C-1.34 4.69 -0.68 2.38 0 0 Z " fill="#FAFAFA" transform="translate(208,240)"/>
<path d="M0 0 C0.99 0.33 1.98 0.66 3 1 C4.1875 4.0625 4.1875 4.0625 5 7 C3.68 7.33 2.36 7.66 1 8 C0.34 5.69 -0.32 3.38 -1 1 C-0.67 0.67 -0.34 0.34 0 0 Z " fill="#F7F7F7" transform="translate(386,223)"/>
<path d="M0 0 C0.66 0.66 1.32 1.32 2 2 C1.67 2.99 1.34 3.98 1 5 C0.01 4.67 -0.98 4.34 -2 4 C-1.67 4.99 -1.34 5.98 -1 7 C-3.31 7.66 -5.62 8.32 -8 9 C-7.04270084 7.87411986 -6.08412105 6.7493285 -5.125 5.625 C-4.59132813 4.99851563 -4.05765625 4.37203125 -3.5078125 3.7265625 C-2.38567993 2.44163349 -1.20628025 1.20628025 0 0 Z " fill="#948253" transform="translate(270,179)"/>
<path d="M0 0 C-0.66 1.98 -1.32 3.96 -2 6 C-5 4 -5 4 -7 1 C-3.375 -1.125 -3.375 -1.125 0 0 Z " fill="#F4E290" transform="translate(279,178)"/>
<path d="M0 0 C2.64 0 5.28 0 8 0 C7.67 1.32 7.34 2.64 7 4 C5.68 4.33 4.36 4.66 3 5 C2.87625 4.360625 2.7525 3.72125 2.625 3.0625 C2.315625 2.0415625 2.315625 2.0415625 2 1 C1.34 0.67 0.68 0.34 0 0 Z " fill="#D8D19B" transform="translate(344,142)"/>
<path d="M0 0 C4.22271781 2.53363068 6.78310162 4.56620325 9 9 C6 9 6 9 3.8125 7.125 C2 5 2 5 2 3 C1.34 3 0.68 3 0 3 C0 2.01 0 1.02 0 0 Z " fill="#C3AC76" transform="translate(302,173)"/>
<path d="M0 0 C0.66 0.33 1.32 0.66 2 1 C1.835 1.53625 1.67 2.0725 1.5 2.625 C0.90339788 5.45886009 0.9343632 8.1119806 1 11 C0.67 9.68 0.34 8.36 0 7 C-1.65 6.67 -3.3 6.34 -5 6 C-4.67 5.34 -4.34 4.68 -4 4 C-3.34 4 -2.68 4 -2 4 C-1.34 2.68 -0.68 1.36 0 0 Z " fill="#BCAF6F" transform="translate(308,141)"/>
<path d="M0 0 C1.98 0 3.96 0 6 0 C6.33 0.66 6.66 1.32 7 2 C6.29875 2.061875 5.5975 2.12375 4.875 2.1875 C0.9667267 3.29201202 -1.00357248 5.28230992 -4 8 C-4 7.01 -4 6.02 -4 5 C-3.34 5 -2.68 5 -2 5 C-2 4.34 -2 3.68 -2 3 C-1.34 3 -0.68 3 0 3 C0 2.01 0 1.02 0 0 Z " fill="#877446" transform="translate(286,185)"/>
<path d="M0 0 C0.99 0.495 0.99 0.495 2 1 C2 1.66 2 2.32 2 3 C2.66 3 3.32 3 4 3 C5.38232443 4.62626404 6.71937515 6.2925002 8 8 C7.67 8.66 7.34 9.32 7 10 C5.82174642 9.09827532 4.65768423 8.17798498 3.5 7.25 C2.8503125 6.73953125 2.200625 6.2290625 1.53125 5.703125 C0 4 0 4 0 0 Z " fill="#A88F5F" transform="translate(345,185)"/>
<path d="M0 0 C1 3 1 3 0 6 C-0.66 6 -1.32 6 -2 6 C-2.33 6.66 -2.66 7.32 -3 8 C-3.99 7.34 -4.98 6.68 -6 6 C-5.38125 5.7525 -4.7625 5.505 -4.125 5.25 C-1.64931313 3.79371361 -1.04874998 2.62187494 0 0 Z " fill="#A68A58" transform="translate(261,188)"/>
<path d="M0 0 C0.66 0.33 1.32 0.66 2 1 C1.67 2.65 1.34 4.3 1 6 C-0.98 6 -2.96 6 -5 6 C-3.63016497 2.83884224 -3.0109362 2.0072908 0 0 Z " fill="#F4EC9D" transform="translate(289,162)"/>
<path d="M0 0 C0.99 0.33 1.98 0.66 3 1 C2.02433888 2.16959987 1.044375 3.33561177 0.0625 4.5 C-0.48277344 5.1496875 -1.02804687 5.799375 -1.58984375 6.46875 C-2.05519531 6.9740625 -2.52054687 7.479375 -3 8 C-3.33 8 -3.66 8 -4 8 C-4 6.35 -4 4.7 -4 3 C-2.68 3 -1.36 3 0 3 C0 2.01 0 1.02 0 0 Z " fill="#C3A364" transform="translate(308,157)"/>
<path d="M0 0 C1.32 0.99 2.64 1.98 4 3 C2.71034824 4.37562854 1.37310707 5.70766393 0 7 C-0.66 7 -1.32 7 -2 7 C-1.125 2.25 -1.125 2.25 0 0 Z " fill="#BCBCBC" transform="translate(387,239)"/>
<path d="M0 0 C2.88437779 1.29299694 4.87219421 2.65941363 7 5 C5.1875 5.625 5.1875 5.625 3 6 C2.01 5.34 1.02 4.68 0 4 C0 2.68 0 1.36 0 0 Z " fill="#BCBCBC" transform="translate(374,211)"/>
<path d="M0 0 C2.97 0.495 2.97 0.495 6 1 C6 2.98 6 4.96 6 7 C1.125 3.375 1.125 3.375 0 0 Z " fill="#B39B5C" transform="translate(292,185)"/>
<path d="M0 0 C1.32 0 2.64 0 4 0 C4 0.66 4 1.32 4 2 C4.66 2 5.32 2 6 2 C6 3.65 6 5.3 6 7 C1.125 2.25 1.125 2.25 0 0 Z " fill="#AD9863" transform="translate(323,177)"/>
<path d="M0 0 C0.66 0 1.32 0 2 0 C2.33 1.65 2.66 3.3 3 5 C1.35 5 -0.3 5 -2 5 C-2 2 -2 2 0 0 Z " fill="#F9F9F9" transform="translate(340,214)"/>
<path d="M0 0 C2.475 0.99 2.475 0.99 5 2 C4.01 2.495 4.01 2.495 3 3 C3 3.66 3 4.32 3 5 C0.36 5 -2.28 5 -5 5 C-5 4.67 -5 4.34 -5 4 C-3.02 4 -1.04 4 1 4 C0.67 2.68 0.34 1.36 0 0 Z " fill="#D9BD7A" transform="translate(350,194)"/>
<path d="M0 0 C2.475 0.99 2.475 0.99 5 2 C5 3.65 5 5.3 5 7 C4.01 6.67 3.02 6.34 2 6 C2 5.34 2 4.68 2 4 C1.34 3.67 0.68 3.34 0 3 C0 2.01 0 1.02 0 0 Z " fill="#E9C26F" transform="translate(346,191)"/>
<path d="M0 0 C1.65 0 3.3 0 5 0 C5 1.65 5 3.3 5 5 C4.67 4.34 4.34 3.68 4 3 C2.68 3.33 1.36 3.66 0 4 C0 2.68 0 1.36 0 0 Z " fill="#F3F3F3" transform="translate(401,239)"/>
<path d="M0 0 C1.98 1.65 3.96 3.3 6 5 C5.67 5.66 5.34 6.32 5 7 C2.525 6.01 2.525 6.01 0 5 C0 3.35 0 1.7 0 0 Z " fill="#A1A1A1" transform="translate(406,239)"/>
<path d="M0 0 C0.99 1.32 1.98 2.64 3 4 C2.34 4.66 1.68 5.32 1 6 C-0.32 5.01 -1.64 4.02 -3 3 C-2.01 2.01 -1.02 1.02 0 0 Z " fill="#D0D0D0" transform="translate(211,236)"/>
<path d="M0 0 C0 3.10551666 -0.5393715 4.35261084 -2 7 C-3.32 6.67 -4.64 6.34 -6 6 C-4.02 4.02 -2.04 2.04 0 0 Z " fill="#878356" transform="translate(277,172)"/>
<path d="M0 0 C0.33 0.66 0.66 1.32 1 2 C1.66 2.33 2.32 2.66 3 3 C2.01 3.99 1.02 4.98 0 6 C-0.66 5.67 -1.32 5.34 -2 5 C-2 3.68 -2 2.36 -2 1 C-1.34 0.67 -0.68 0.34 0 0 Z " fill="#ECDA85" transform="translate(305,146)"/>
</svg>
